<svg xmlns:xlink="http://www.w3.org/1999/xlink" xmlns="http://www.w3.org/2000/svg" class="inline-block w-6 h-6 transition-colors group-hover:fill-n-1 mr-3 fill-n-1" width="24" height="24" viewBox="0 0 24 24"><path d="M7.744 1.089C3.672 2.93 1 6.991 1 11.538 1 17.868 6.132 23 12.462 23c4.547 0 8.608-2.672 10.449-6.744.38-.84-.483-1.703-1.323-1.323-1.213.548-2.532.836-3.894.836-5.226 0-9.462-4.236-9.462-9.462 0-1.362.287-2.682.836-3.894.38-.84-.483-1.703-1.323-1.323zM6.335 4.325l.078-.066-.003.018a11.53 11.53 0 0 0-.179 2.029c0 6.33 5.132 11.462 11.462 11.462l.411-.007c.41-.014.816-.051 1.218-.108l.418-.068-.065.079C17.914 19.737 15.303 21 12.462 21 7.236 21 3 16.764 3 11.538c0-2.841 1.263-5.452 3.335-7.213z" fill="#FEFEFE"></path></svg>