<svg xmlns:xlink="http://www.w3.org/1999/xlink" xmlns="http://www.w3.org/2000/svg" class="inline-block w-6 h-6 fill-n-4 transition-colors group-hover:fill-primary-1 ui-open:fill-primary-1" width="24" height="24" viewBox="0 0 24 24"><path d="M11 3a1 1 0 0 1 .117 1.993L11 5l-3.664.001-.752.009-.299.008-.254.012-.31.025-.167.022-.141.027-.121.032-.106.038-.096.044a2 2 0 0 0-.874.874l-.048.106-.041.119-.034.139-.028.166-.022.2-.024.38-.01.317-.01.818v8.327l.01.818.01.317.015.265.009.115.022.2.028.166.034.139.041.119.048.106a2 2 0 0 0 .874.874l.106.048.119.041.139.034.166.028.2.022.38.024.317.01.818.01h8.327l.818-.01.317-.01.265-.015.115-.009.2-.022.166-.028.139-.034.119-.041.106-.048a2 2 0 0 0 .874-.874l.044-.096.02-.051.035-.112.015-.063.027-.141.022-.167.025-.31.012-.254.014-.647L19 16.2V13a1 1 0 0 1 1.993-.117L21 13l-.003 3.985-.006.443-.01.387-.016.338-.022.296-.03.26c-.046.327-.114.577-.218.825l-.084.186-.047.095a4 4 0 0 1-1.748 1.748l-.189.091c-.279.126-.551.207-.918.258l-.26.03-.296.022-.338.016-.387.01-.443.006L15.2 22l-8.185-.003-.443-.006-.387-.01-.338-.016-.296-.022-.26-.03c-.327-.046-.577-.114-.825-.218l-.186-.084-.095-.047a4 4 0 0 1-1.748-1.748l-.091-.189c-.126-.279-.207-.551-.258-.918l-.03-.26-.022-.296-.016-.338-.01-.387-.006-.443L2 16.2l.003-8.185.006-.443.01-.387.016-.338.022-.296.03-.26c.046-.327.114-.577.218-.825l.084-.186.047-.095a4 4 0 0 1 1.748-1.748l.189-.091a3.18 3.18 0 0 1 .918-.258l.26-.03.296-.022.338-.016.387-.01.443-.006L7.8 3H11zm9.828.172a4 4 0 0 1-5.657 5.657 4 4 0 0 1 5.657-5.657zm-4.243 1.414a2 2 0 0 0 2.828 2.828 2 2 0 0 0 .117-2.701l-.117-.127-.127-.117a2 2 0 0 0-2.701.117z" fill="#6C7275"></path></svg>