<svg xmlns:xlink="http://www.w3.org/1999/xlink" xmlns="http://www.w3.org/2000/svg" class="inline-block w-6 h-6 fill-n-4 transition-colors group-hover:fill-n-1 mr-3 false" width="24" height="24" viewBox="0 0 24 24"><path d="M12 19a1 1 0 0 1 1 1h0v2a1 1 0 1 1-2 0h0v-2a1 1 0 0 1 1-1zm-4.979-2.017a1 1 0 0 1 .083 1.32l-.083.094-1.414 1.414a1 1 0 0 1-1.497-1.32l.083-.094 1.414-1.414a1 1 0 0 1 1.414 0zm11.372 0l1.414 1.414a1 1 0 1 1-1.414 1.414l-1.414-1.414a1 1 0 0 1 1.414-1.414zM12 6a6 6 0 1 1 0 12 6 6 0 1 1 0-12zm-8 5a1 1 0 1 1 0 2H2a1 1 0 1 1 0-2h2zm18 0a1 1 0 1 1 0 2h0-2a1 1 0 1 1 0-2h0zM5.513 4.11l.094.083 1.414 1.414a1 1 0 0 1-1.32 1.497l-.094-.083-1.414-1.414a1 1 0 0 1 1.32-1.497zm14.294.083a1 1 0 0 1 0 1.414l-1.414 1.414a1 1 0 0 1-1.414-1.414l1.414-1.414a1 1 0 0 1 1.414 0zM12 1a1 1 0 0 1 .993.883L13 2v2a1 1 0 0 1-1.993.117L11 4V2a1 1 0 0 1 1-1z" fill="#6C7275"></path></svg>